<svg width="27" height="22" viewBox="0 0 27 22" fill="none" xmlns="http://www.w3.org/2000/svg">
<path d="M25.5833 16.2381H18.5C15.9729 16.2381 13.9167 13.8881 13.9167 11.0001C13.9167 8.11198 15.9729 5.762 18.5 5.762H24.5775L21.9554 8.75864C21.7925 8.94483 21.7925 9.24579 21.9554 9.43197C22.0367 9.52483 22.1433 9.5715 22.25 9.5715C22.3567 9.5715 22.4633 9.52483 22.5446 9.43197L25.8775 5.62295C25.9162 5.57914 25.9467 5.52628 25.9679 5.46771C26.01 5.35152 26.01 5.22057 25.9679 5.1039C25.9467 5.04533 25.9158 4.99248 25.8775 4.94867L22.5446 1.13964C22.3817 0.953453 22.1183 0.953453 21.9554 1.13964C21.7925 1.32583 21.7925 1.62678 21.9554 1.81297L24.5775 4.80962H18.5C16.25 4.80962 14.3171 6.38628 13.5 8.62293C12.6829 6.38628 10.75 4.80962 8.5 4.80962H1.41667C1.18625 4.80962 1 5.02248 1 5.28581C1 5.54914 1.18625 5.762 1.41667 5.762H8.5C11.0271 5.762 13.0833 8.11198 13.0833 11.0001C13.0833 13.8881 11.0271 16.2381 8.5 16.2381H2.4225L5.04458 13.2415C5.2075 13.0553 5.2075 12.7543 5.04458 12.5681C4.88167 12.382 4.61833 12.382 4.45542 12.5681L1.1225 16.3772C1.08375 16.421 1.05333 16.4738 1.03208 16.5324C0.99 16.6486 0.99 16.78 1.03208 16.8962C1.05333 16.9548 1.08375 17.0076 1.1225 17.0515L4.45542 20.8605C4.53667 20.9533 4.64333 21 4.75 21C4.85667 21 4.96333 20.9533 5.04458 20.8605C5.2075 20.6743 5.2075 20.3733 5.04458 20.1871L2.4225 17.1905H8.5C10.75 17.1905 12.6829 15.6138 13.5 13.3772C14.3171 15.6138 16.25 17.1905 18.5 17.1905H25.5833C25.8137 17.1905 26 16.9776 26 16.7143C26 16.451 25.8137 16.2381 25.5833 16.2381Z" fill="#A6ADBB" stroke="#A6ADBB" stroke-width="1.4"/>
</svg>
