<svg width="20" height="20" viewBox="0 0 20 20" fill="none" xmlns="http://www.w3.org/2000/svg">
<path d="M15 1.66666C14.337 1.66666 13.7011 1.93005 13.2322 2.39889C12.7634 2.86773 12.5 3.50362 12.5 4.16666C12.5005 4.32345 12.5158 4.47984 12.5456 4.63378L6.61621 8.09244C6.16459 7.70986 5.59188 7.49992 5 7.49999C4.33696 7.49999 3.70107 7.76338 3.23223 8.23222C2.76339 8.70106 2.5 9.33695 2.5 9.99999C2.5 10.663 2.76339 11.2989 3.23223 11.7678C3.70107 12.2366 4.33696 12.5 5 12.5C5.59097 12.4988 6.16242 12.2884 6.61296 11.9059L12.5456 15.3662C12.5158 15.5201 12.5005 15.6765 12.5 15.8333C12.5 16.4964 12.7634 17.1322 13.2322 17.6011C13.7011 18.0699 14.337 18.3333 15 18.3333C15.663 18.3333 16.2989 18.0699 16.7678 17.6011C17.2366 17.1322 17.5 16.4964 17.5 15.8333C17.5 15.1703 17.2366 14.5344 16.7678 14.0656C16.2989 13.5967 15.663 13.3333 15 13.3333C14.4085 13.3341 13.8364 13.5446 13.3854 13.9274L7.45443 10.4671C7.48423 10.3132 7.49949 10.1568 7.5 9.99999C7.49949 9.8432 7.48423 9.6868 7.45443 9.53287L13.3838 6.07421C13.8354 6.45679 14.4081 6.66672 15 6.66666C15.663 6.66666 16.2989 6.40326 16.7678 5.93442C17.2366 5.46558 17.5 4.8297 17.5 4.16666C17.5 3.50362 17.2366 2.86773 16.7678 2.39889C16.2989 1.93005 15.663 1.66666 15 1.66666Z" fill="#A6ADBB" stroke="#A6ADBB" stroke-width="0.833333"/>
</svg>
